  0
SECTION
  2
HEADER
  9
$ACADVER
  1
AC1009
  9
$EXTMIN
 10
0.0
 20
0.0
 30
0.0
  9
$EXTMAX
 10
1000.0
 20
1000.0
 30
0.0
  9
$FILLMODE
 70
 0
  9
$SPLFRAME
 70
 1
  0
ENDSEC
  0
SECTION
  2
TABLES
  0
TABLE
  2
LAYER
 70
1
  0
LAYER
  2
0
 70
     0
 62
     7
  6
CONTINUOUS
  0
ENDTAB
  0
ENDSEC
  0
SECTION
  2
ENTITIES
  0
POLYLINE
  8
0
 62
     5
 66
     1
 10
0
 20
0
 30
0.0
 70
     1
 40
0
 41
0
  0
VERTEX
  8
0
 10
0.00607639
 20
39.364
 30
0.0
 40
0
 41
0
  0
VERTEX
  8
0
 10
39.364
 20
39.364
 30
0.0
 40
0
 41
0
  0
VERTEX
  8
0
 10
39.364
 20
0.00607639
 30
0.0
 40
0
 41
0
  0
VERTEX
  8
0
 10
0.00607639
 20
0.00607639
 30
0.0
 40
0
 41
0
  0
VERTEX
  8
0
 10
0.00607639
 20
39.364
 30
0.0
 40
0
 41
0
  0
SEQEND
 8
0
  0
POLYLINE
  8
0
 62
     0
 66
     1
 10
0
 20
0
 30
0.0
 70
     1
 40
0.873948
 41
0.873948
  0
VERTEX
  8
0
 10
0.00607639
 20
39.364
 30
0.0
 40
0.0121382
 41
0.0121382
  0
VERTEX
  8
0
 10
39.364
 20
39.364
 30
0.0
 40
0.0121382
 41
0.0121382
  0
VERTEX
  8
0
 10
39.364
 20
0.00607639
 30
0.0
 40
0.0121382
 41
0.0121382
  0
VERTEX
  8
0
 10
0.00607639
 20
0.00607639
 30
0.0
 40
0.0121382
 41
0.0121382
  0
VERTEX
  8
0
 10
0.00607639
 20
39.364
 30
0.0
 40
0.0121382
 41
0.0121382
  0
SEQEND
 8
0
  0
POLYLINE
  8
0
 62
     0
 66
     1
 10
0
 20
0
 30
0.0
 40
1.53071
 41
1.53071
  0
VERTEX
  8
0
 10
8.18653
 20
18.3575
 30
0.0
 40
0.0212599
 41
0.0212599
  0
VERTEX
  8
0
 10
7.18365
 20
16.2929
 30
0.0
 40
0.0212599
 41
0.0212599
  0
SEQEND
 8
0
  0
POLYLINE
  8
0
 62
     0
 66
     1
 10
0
 20
0
 30
0.0
 40
1.53071
 41
1.53071
  0
VERTEX
  8
0
 10
6.08903
 20
18.526
 30
0.0
 40
0.0212599
 41
0.0212599
  0
VERTEX
  8
0
 10
7.18365
 20
16.2929
 30
0.0
 40
0.0212599
 41
0.0212599
  0
SEQEND
 8
0
  0
POLYLINE
  8
0
 62
     0
 66
     1
 10
0
 20
0
 30
0.0
 40
1.53071
 41
1.53071
  0
VERTEX
  8
0
 10
17.7803
 20
14.3699
 30
0.0
 40
0.0212599
 41
0.0212599
  0
VERTEX
  8
0
 10
18.9214
 20
16.0301
 30
0.0
 40
0.0212599
 41
0.0212599
  0
SEQEND
 8
0
  0
POLYLINE
  8
0
 62
     0
 66
     1
 10
0
 20
0
 30
0.0
 40
1.53071
 41
1.53071
  0
VERTEX
  8
0
 10
25.7497
 20
22.7106
 30
0.0
 40
0.0212599
 41
0.0212599
  0
VERTEX
  8
0
 10
26.7421
 20
21.2938
 30
0.0
 40
0.0212599
 41
0.0212599
  0
SEQEND
 8
0
  0
POLYLINE
  8
0
 62
     0
 66
     1
 10
0
 20
0
 30
0.0
 40
1.53071
 41
1.53071
  0
VERTEX
  8
0
 10
12.9881
 20
26.3865
 30
0.0
 40
0.0212599
 41
0.0212599
  0
VERTEX
  8
0
 10
12.0295
 20
27.7397
 30
0.0
 40
0.0212599
 41
0.0212599
  0
SEQEND
 8
0
  0
POLYLINE
  8
0
 62
     0
 66
     1
 10
0
 20
0
 30
0.0
 40
1.53071
 41
1.53071
  0
VERTEX
  8
0
 10
26.7421
 20
21.2938
 30
0.0
 40
0.0212599
 41
0.0212599
  0
VERTEX
  8
0
 10
28.7438
 20
24.4167
 30
0.0
 40
0.0212599
 41
0.0212599
  0
SEQEND
 8
0
  0
POLYLINE
  8
0
 62
     0
 66
     1
 10
0
 20
0
 30
0.0
 40
1.53071
 41
1.53071
  0
VERTEX
  8
0
 10
30.5528
 20
13.8171
 30
0.0
 40
0.0212599
 41
0.0212599
  0
VERTEX
  8
0
 10
27.5065
 20
12.407
 30
0.0
 40
0.0212599
 41
0.0212599
  0
SEQEND
 8
0
  0
POLYLINE
  8
0
 62
     0
 66
     1
 10
0
 20
0
 30
0.0
 40
1.53071
 41
1.53071
  0
VERTEX
  8
0
 10
15.6469
 20
16.6781
 30
0.0
 40
0.0212599
 41
0.0212599
  0
VERTEX
  8
0
 10
15.5893
 20
19.9172
 30
0.0
 40
0.0212599
 41
0.0212599
  0
SEQEND
 8
0
  0
POLYLINE
  8
0
 62
     0
 66
     1
 10
0
 20
0
 30
0.0
 40
1.53071
 41
1.53071
  0
VERTEX
  8
0
 10
27.5065
 20
12.407
 30
0.0
 40
0.0212599
 41
0.0212599
  0
VERTEX
  8
0
 10
30.0799
 20
12.4187
 30
0.0
 40
0.0212599
 41
0.0212599
  0
SEQEND
 8
0
  0
POLYLINE
  8
0
 62
     0
 66
     1
 10
0
 20
0
 30
0.0
 40
1.53071
 41
1.53071
  0
VERTEX
  8
0
 10
11.5661
 20
11.4293
 30
0.0
 40
0.0212599
 41
0.0212599
  0
VERTEX
  8
0
 10
10.1958
 20
15.431
 30
0.0
 40
0.0212599
 41
0.0212599
  0
SEQEND
 8
0
  0
POLYLINE
  8
0
 62
     0
 66
     1
 10
0
 20
0
 30
0.0
 40
1.53071
 41
1.53071
  0
VERTEX
  8
0
 10
9.32146
 20
14.4288
 30
0.0
 40
0.0212599
 41
0.0212599
  0
VERTEX
  8
0
 10
7.18365
 20
16.2929
 30
0.0
 40
0.0212599
 41
0.0212599
  0
SEQEND
 8
0
  0
POLYLINE
  8
0
 62
     0
 66
     1
 10
0
 20
0
 30
0.0
 40
1.53071
 41
1.53071
  0
VERTEX
  8
0
 10
28.0958
 20
14.2
 30
0.0
 40
0.0212599
 41
0.0212599
  0
VERTEX
  8
0
 10
27.5065
 20
12.407
 30
0.0
 40
0.0212599
 41
0.0212599
  0
SEQEND
 8
0
  0
POLYLINE
  8
0
 62
     0
 66
     1
 10
0
 20
0
 30
0.0
 40
1.53071
 41
1.53071
  0
VERTEX
  8
0
 10
15.5893
 20
19.9172
 30
0.0
 40
0.0212599
 41
0.0212599
  0
VERTEX
  8
0
 10
17.3939
 20
18.2718
 30
0.0
 40
0.0212599
 41
0.0212599
  0
SEQEND
 8
0
  0
POLYLINE
  8
0
 62
     0
 66
     1
 10
0
 20
0
 30
0.0
 40
1.53071
 41
1.53071
  0
VERTEX
  8
0
 10
32.2608
 20
20.5821
 30
0.0
 40
0.0212599
 41
0.0212599
  0
VERTEX
  8
0
 10
30.4278
 20
18.9547
 30
0.0
 40
0.0212599
 41
0.0212599
  0
SEQEND
 8
0
  0
POLYLINE
  8
0
 62
     0
 66
     1
 10
0
 20
0
 30
0.0
 40
1.53071
 41
1.53071
  0
VERTEX
  8
0
 10
11.9888
 20
15.5685
 30
0.0
 40
0.0212599
 41
0.0212599
  0
VERTEX
  8
0
 10
13.6039
 20
13.5798
 30
0.0
 40
0.0212599
 41
0.0212599
  0
SEQEND
 8
0
  0
POLYLINE
  8
0
 62
     0
 66
     1
 10
0
 20
0
 30
0.0
 40
1.53071
 41
1.53071
  0
VERTEX
  8
0
 10
8.93474
 20
25.165
 30
0.0
 40
0.0212599
 41
0.0212599
  0
VERTEX
  8
0
 10
11.2993
 20
25.8865
 30
0.0
 40
0.0212599
 41
0.0212599
  0
SEQEND
 8
0
  0
POLYLINE
  8
0
 62
     0
 66
     1
 10
0
 20
0
 30
0.0
 40
1.53071
 41
1.53071
  0
VERTEX
  8
0
 10
18.9214
 20
16.0301
 30
0.0
 40
0.0212599
 41
0.0212599
  0
VERTEX
  8
0
 10
19.0633
 20
18.4376
 30
0.0
 40
0.0212599
 41
0.0212599
  0
SEQEND
 8
0
  0
POLYLINE
  8
0
 62
     0
 66
     1
 10
0
 20
0
 30
0.0
 40
1.53071
 41
1.53071
  0
VERTEX
  8
0
 10
26.7421
 20
21.2938
 30
0.0
 40
0.0212599
 41
0.0212599
  0
VERTEX
  8
0
 10
27.3365
 20
18.6707
 30
0.0
 40
0.0212599
 41
0.0212599
  0
SEQEND
 8
0
  0
POLYLINE
  8
0
 62
     0
 66
     1
 10
0
 20
0
 30
0.0
 40
1.53071
 41
1.53071
  0
VERTEX
  8
0
 10
17.3939
 20
18.2718
 30
0.0
 40
0.0212599
 41
0.0212599
  0
VERTEX
  8
0
 10
18.9214
 20
16.0301
 30
0.0
 40
0.0212599
 41
0.0212599
  0
SEQEND
 8
0
  0
POLYLINE
  8
0
 62
     0
 66
     1
 10
0
 20
0
 30
0.0
 40
1.53071
 41
1.53071
  0
VERTEX
  8
0
 10
6.30632
 20
12.4842
 30
0.0
 40
0.0212599
 41
0.0212599
  0
VERTEX
  8
0
 10
5.21951
 20
17.1229
 30
0.0
 40
0.0212599
 41
0.0212599
  0
SEQEND
 8
0
  0
POLYLINE
  8
0
 62
     0
 66
     1
 10
0
 20
0
 30
0.0
 40
1.53071
 41
1.53071
  0
VERTEX
  8
0
 10
16.5978
 20
16.1632
 30
0.0
 40
0.0212599
 41
0.0212599
  0
VERTEX
  8
0
 10
17.3939
 20
18.2718
 30
0.0
 40
0.0212599
 41
0.0212599
  0
SEQEND
 8
0
  0
POLYLINE
  8
0
 62
     0
 66
     1
 10
0
 20
0
 30
0.0
 40
1.53071
 41
1.53071
  0
VERTEX
  8
0
 10
29.2128
 20
20.2267
 30
0.0
 40
0.0212599
 41
0.0212599
  0
VERTEX
  8
0
 10
32.2608
 20
20.5821
 30
0.0
 40
0.0212599
 41
0.0212599
  0
SEQEND
 8
0
  0
POLYLINE
  8
0
 62
     0
 66
     1
 10
0
 20
0
 30
0.0
 40
1.53071
 41
1.53071
  0
VERTEX
  8
0
 10
11.9888
 20
15.5685
 30
0.0
 40
0.0212599
 41
0.0212599
  0
VERTEX
  8
0
 10
13.0976
 20
12.2448
 30
0.0
 40
0.0212599
 41
0.0212599
  0
SEQEND
 8
0
  0
POLYLINE
  8
0
 62
     0
 66
     1
 10
0
 20
0
 30
0.0
 40
1.53071
 41
1.53071
  0
VERTEX
  8
0
 10
15.5893
 20
19.9172
 30
0.0
 40
0.0212599
 41
0.0212599
  0
VERTEX
  8
0
 10
16.5978
 20
16.1632
 30
0.0
 40
0.0212599
 41
0.0212599
  0
SEQEND
 8
0
  0
POLYLINE
  8
0
 62
     0
 66
     1
 10
0
 20
0
 30
0.0
 40
1.53071
 41
1.53071
  0
VERTEX
  8
0
 10
8.02382
 20
23.3257
 30
0.0
 40
0.0212599
 41
0.0212599
  0
VERTEX
  8
0
 10
9.87061
 20
23.9735
 30
0.0
 40
0.0212599
 41
0.0212599
  0
SEQEND
 8
0
  0
POLYLINE
  8
0
 62
     0
 66
     1
 10
0
 20
0
 30
0.0
 40
1.53071
 41
1.53071
  0
VERTEX
  8
0
 10
29.2128
 20
20.2267
 30
0.0
 40
0.0212599
 41
0.0212599
  0
VERTEX
  8
0
 10
31.0346
 20
22.3172
 30
0.0
 40
0.0212599
 41
0.0212599
  0
SEQEND
 8
0
  0
POLYLINE
  8
0
 62
     0
 66
     1
 10
0
 20
0
 30
0.0
 40
1.53071
 41
1.53071
  0
VERTEX
  8
0
 10
29.0244
 20
11.1409
 30
0.0
 40
0.0212599
 41
0.0212599
  0
VERTEX
  8
0
 10
30.0799
 20
12.4187
 30
0.0
 40
0.0212599
 41
0.0212599
  0
SEQEND
 8
0
  0
POLYLINE
  8
0
 62
     0
 66
     1
 10
0
 20
0
 30
0.0
 40
1.53071
 41
1.53071
  0
VERTEX
  8
0
 10
24.119
 20
16.2724
 30
0.0
 40
0.0212599
 41
0.0212599
  0
VERTEX
  8
0
 10
22.5092
 20
17.2351
 30
0.0
 40
0.0212599
 41
0.0212599
  0
SEQEND
 8
0
  0
POLYLINE
  8
0
 62
     0
 66
     1
 10
0
 20
0
 30
0.0
 40
1.53071
 41
1.53071
  0
VERTEX
  8
0
 10
11.5661
 20
11.4293
 30
0.0
 40
0.0212599
 41
0.0212599
  0
VERTEX
  8
0
 10
9.32146
 20
14.4288
 30
0.0
 40
0.0212599
 41
0.0212599
  0
SEQEND
 8
0
  0
POLYLINE
  8
0
 62
     0
 66
     1
 10
0
 20
0
 30
0.0
 40
1.53071
 41
1.53071
  0
VERTEX
  8
0
 10
13.0976
 20
12.2448
 30
0.0
 40
0.0212599
 41
0.0212599
  0
VERTEX
  8
0
 10
10.1958
 20
15.431
 30
0.0
 40
0.0212599
 41
0.0212599
  0
SEQEND
 8
0
  0
POLYLINE
  8
0
 62
     0
 66
     1
 10
0
 20
0
 30
0.0
 40
1.53071
 41
1.53071
  0
VERTEX
  8
0
 10
25.7497
 20
22.7106
 30
0.0
 40
0.0212599
 41
0.0212599
  0
VERTEX
  8
0
 10
28.7438
 20
24.4167
 30
0.0
 40
0.0212599
 41
0.0212599
  0
SEQEND
 8
0
  0
POLYLINE
  8
0
 62
     0
 66
     1
 10
0
 20
0
 30
0.0
 40
1.53071
 41
1.53071
  0
VERTEX
  8
0
 10
25.3735
 20
13.4792
 30
0.0
 40
0.0212599
 41
0.0212599
  0
VERTEX
  8
0
 10
27.5065
 20
12.407
 30
0.0
 40
0.0212599
 41
0.0212599
  0
SEQEND
 8
0
  0
POLYLINE
  8
0
 62
     0
 66
     1
 10
0
 20
0
 30
0.0
 40
1.53071
 41
1.53071
  0
VERTEX
  8
0
 10
22.1853
 20
15.3917
 30
0.0
 40
0.0212599
 41
0.0212599
  0
VERTEX
  8
0
 10
22.5092
 20
17.2351
 30
0.0
 40
0.0212599
 41
0.0212599
  0
SEQEND
 8
0
  0
POLYLINE
  8
0
 62
     0
 66
     1
 10
0
 20
0
 30
0.0
 40
1.53071
 41
1.53071
  0
VERTEX
  8
0
 10
27.9992
 20
21.0672
 30
0.0
 40
0.0212599
 41
0.0212599
  0
VERTEX
  8
0
 10
31.0346
 20
22.3172
 30
0.0
 40
0.0212599
 41
0.0212599
  0
SEQEND
 8
0
  0
POLYLINE
  8
0
 62
     0
 66
     1
 10
0
 20
0
 30
0.0
 40
1.53071
 41
1.53071
  0
VERTEX
  8
0
 10
5.48329
 20
11.6108
 30
0.0
 40
0.0212599
 41
0.0212599
  0
VERTEX
  8
0
 10
5.21951
 20
17.1229
 30
0.0
 40
0.0212599
 41
0.0212599
  0
SEQEND
 8
0
  0
POLYLINE
  8
0
 62
     0
 66
     1
 10
0
 20
0
 30
0.0
 40
1.53071
 41
1.53071
  0
VERTEX
  8
0
 10
15.3929
 20
26.6082
 30
0.0
 40
0.0212599
 41
0.0212599
  0
VERTEX
  8
0
 10
15.0918
 20
23.5826
 30
0.0
 40
0.0212599
 41
0.0212599
  0
SEQEND
 8
0
  0
POLYLINE
  8
0
 62
     0
 66
     1
 10
0
 20
0
 30
0.0
 40
1.53071
 41
1.53071
  0
VERTEX
  8
0
 10
18.4331
 20
24.0303
 30
0.0
 40
0.0212599
 41
0.0212599
  0
VERTEX
  8
0
 10
17.5467
 20
28.905
 30
0.0
 40
0.0212599
 41
0.0212599
  0
SEQEND
 8
0
  0
POLYLINE
  8
0
 62
     0
 66
     1
 10
0
 20
0
 30
0.0
 40
1.53071
 41
1.53071
  0
VERTEX
  8
0
 10
25.9085
 20
19.4804
 30
0.0
 40
0.0212599
 41
0.0212599
  0
VERTEX
  8
0
 10
25.5597
 20
17.3564
 30
0.0
 40
0.0212599
 41
0.0212599
  0
SEQEND
 8
0
  0
POLYLINE
  8
0
 62
     0
 66
     1
 10
0
 20
0
 30
0.0
 40
1.53071
 41
1.53071
  0
VERTEX
  8
0
 10
26.7421
 20
21.2938
 30
0.0
 40
0.0212599
 41
0.0212599
  0
VERTEX
  8
0
 10
29.7937
 20
23.5068
 30
0.0
 40
0.0212599
 41
0.0212599
  0
SEQEND
 8
0
  0
POLYLINE
  8
0
 62
     0
 66
     1
 10
0
 20
0
 30
0.0
 40
1.53071
 41
1.53071
  0
VERTEX
  8
0
 10
15.6469
 20
16.6781
 30
0.0
 40
0.0212599
 41
0.0212599
  0
VERTEX
  8
0
 10
16.5978
 20
16.1632
 30
0.0
 40
0.0212599
 41
0.0212599
  0
SEQEND
 8
0
  0
POLYLINE
  8
0
 62
     0
 66
     1
 10
0
 20
0
 30
0.0
 40
1.53071
 41
1.53071
  0
VERTEX
  8
0
 10
7.18365
 20
16.2929
 30
0.0
 40
0.0212599
 41
0.0212599
  0
VERTEX
  8
0
 10
5.21951
 20
17.1229
 30
0.0
 40
0.0212599
 41
0.0212599
  0
SEQEND
 8
0
  0
POLYLINE
  8
0
 62
     0
 66
     1
 10
0
 20
0
 30
0.0
 40
1.53071
 41
1.53071
  0
VERTEX
  8
0
 10
15.3929
 20
26.6082
 30
0.0
 40
0.0212599
 41
0.0212599
  0
VERTEX
  8
0
 10
18.4331
 20
24.0303
 30
0.0
 40
0.0212599
 41
0.0212599
  0
SEQEND
 8
0
  0
POLYLINE
  8
0
 62
     0
 66
     1
 10
0
 20
0
 30
0.0
 40
1.53071
 41
1.53071
  0
VERTEX
  8
0
 10
27.9992
 20
21.0672
 30
0.0
 40
0.0212599
 41
0.0212599
  0
VERTEX
  8
0
 10
29.7937
 20
23.5068
 30
0.0
 40
0.0212599
 41
0.0212599
  0
SEQEND
 8
0
  0
POLYLINE
  8
0
 62
     0
 66
     1
 10
0
 20
0
 30
0.0
 40
1.53071
 41
1.53071
  0
VERTEX
  8
0
 10
16.5978
 20
16.1632
 30
0.0
 40
0.0212599
 41
0.0212599
  0
VERTEX
  8
0
 10
18.9214
 20
16.0301
 30
0.0
 40
0.0212599
 41
0.0212599
  0
SEQEND
 8
0
  0
POLYLINE
  8
0
 62
     0
 66
     1
 10
0
 20
0
 30
0.0
 40
1.53071
 41
1.53071
  0
VERTEX
  8
0
 10
9.32146
 20
14.4288
 30
0.0
 40
0.0212599
 41
0.0212599
  0
VERTEX
  8
0
 10
8.18653
 20
18.3575
 30
0.0
 40
0.0212599
 41
0.0212599
  0
SEQEND
 8
0
  0
POLYLINE
  8
0
 62
     0
 66
     1
 10
0
 20
0
 30
0.0
 40
1.53071
 41
1.53071
  0
VERTEX
  8
0
 10
23.5768
 20
18.0658
 30
0.0
 40
0.0212599
 41
0.0212599
  0
VERTEX
  8
0
 10
25.5597
 20
17.3564
 30
0.0
 40
0.0212599
 41
0.0212599
  0
SEQEND
 8
0
  0
POLYLINE
  8
0
 62
     0
 66
     1
 10
0
 20
0
 30
0.0
 40
1.53071
 41
1.53071
  0
VERTEX
  8
0
 10
10.6411
 20
18.305
 30
0.0
 40
0.0212599
 41
0.0212599
  0
VERTEX
  8
0
 10
5.94265
 20
21.006
 30
0.0
 40
0.0212599
 41
0.0212599
  0
SEQEND
 8
0
  0
POLYLINE
  8
0
 62
     0
 66
     1
 10
0
 20
0
 30
0.0
 40
1.53071
 41
1.53071
  0
VERTEX
  8
0
 10
22.1853
 20
15.3917
 30
0.0
 40
0.0212599
 41
0.0212599
  0
VERTEX
  8
0
 10
19.9093
 20
14.8643
 30
0.0
 40
0.0212599
 41
0.0212599
  0
SEQEND
 8
0
  0
POLYLINE
  8
0
 62
     0
 66
     1
 10
0
 20
0
 30
0.0
 40
1.53071
 41
1.53071
  0
VERTEX
  8
0
 10
32.8579
 20
19.5726
 30
0.0
 40
0.0212599
 41
0.0212599
  0
VERTEX
  8
0
 10
30.4278
 20
18.9547
 30
0.0
 40
0.0212599
 41
0.0212599
  0
SEQEND
 8
0
  0
POLYLINE
  8
0
 62
     0
 66
     1
 10
0
 20
0
 30
0.0
 40
1.53071
 41
1.53071
  0
VERTEX
  8
0
 10
20.7464
 20
23.3524
 30
0.0
 40
0.0212599
 41
0.0212599
  0
VERTEX
  8
0
 10
19.3753
 20
22.1404
 30
0.0
 40
0.0212599
 41
0.0212599
  0
SEQEND
 8
0
  0
POLYLINE
  8
0
 62
     0
 66
     1
 10
0
 20
0
 30
0.0
 40
1.53071
 41
1.53071
  0
VERTEX
  8
0
 10
22.1853
 20
15.3917
 30
0.0
 40
0.0212599
 41
0.0212599
  0
VERTEX
  8
0
 10
21.6764
 20
12.0165
 30
0.0
 40
0.0212599
 41
0.0212599
  0
SEQEND
 8
0
  0
POLYLINE
  8
0
 62
     0
 66
     1
 10
0
 20
0
 30
0.0
 40
1.53071
 41
1.53071
  0
VERTEX
  8
0
 10
30.3371
 20
16.5381
 30
0.0
 40
0.0212599
 41
0.0212599
  0
VERTEX
  8
0
 10
32.8579
 20
19.5726
 30
0.0
 40
0.0212599
 41
0.0212599
  0
SEQEND
 8
0
  0
POLYLINE
  8
0
 62
     0
 66
     1
 10
0
 20
0
 30
0.0
 40
1.53071
 41
1.53071
  0
VERTEX
  8
0
 10
21.7237
 20
19.2276
 30
0.0
 40
0.0212599
 41
0.0212599
  0
VERTEX
  8
0
 10
19.3822
 20
20.1951
 30
0.0
 40
0.0212599
 41
0.0212599
  0
SEQEND
 8
0
  0
POLYLINE
  8
0
 62
     0
 66
     1
 10
0
 20
0
 30
0.0
 40
1.53071
 41
1.53071
  0
VERTEX
  8
0
 10
22.1853
 20
15.3917
 30
0.0
 40
0.0212599
 41
0.0212599
  0
VERTEX
  8
0
 10
18.9214
 20
16.0301
 30
0.0
 40
0.0212599
 41
0.0212599
  0
SEQEND
 8
0
  0
POLYLINE
  8
0
 62
     0
 66
     1
 10
0
 20
0
 30
0.0
 40
1.53071
 41
1.53071
  0
VERTEX
  8
0
 10
8.02382
 20
23.3257
 30
0.0
 40
0.0212599
 41
0.0212599
  0
VERTEX
  8
0
 10
9.44239
 20
22.8544
 30
0.0
 40
0.0212599
 41
0.0212599
  0
SEQEND
 8
0
  0
POLYLINE
  8
0
 62
     0
 66
     1
 10
0
 20
0
 30
0.0
 40
1.53071
 41
1.53071
  0
VERTEX
  8
0
 10
29.0244
 20
11.1409
 30
0.0
 40
0.0212599
 41
0.0212599
  0
VERTEX
  8
0
 10
27.5065
 20
12.407
 30
0.0
 40
0.0212599
 41
0.0212599
  0
SEQEND
 8
0
  0
POLYLINE
  8
0
 62
     0
 66
     1
 10
0
 20
0
 30
0.0
 40
1.53071
 41
1.53071
  0
VERTEX
  8
0
 10
22.5407
 20
21.4547
 30
0.0
 40
0.0212599
 41
0.0212599
  0
VERTEX
  8
0
 10
19.3822
 20
20.1951
 30
0.0
 40
0.0212599
 41
0.0212599
  0
SEQEND
 8
0
  0
POLYLINE
  8
0
 62
     0
 66
     1
 10
0
 20
0
 30
0.0
 40
1.53071
 41
1.53071
  0
VERTEX
  8
0
 10
22.5407
 20
21.4547
 30
0.0
 40
0.0212599
 41
0.0212599
  0
VERTEX
  8
0
 10
21.7237
 20
19.2276
 30
0.0
 40
0.0212599
 41
0.0212599
  0
SEQEND
 8
0
  0
POLYLINE
  8
0
 62
     0
 66
     1
 10
0
 20
0
 30
0.0
 40
1.53071
 41
1.53071
  0
VERTEX
  8
0
 10
15.3929
 20
26.6082
 30
0.0
 40
0.0212599
 41
0.0212599
  0
VERTEX
  8
0
 10
12.9881
 20
26.3865
 30
0.0
 40
0.0212599
 41
0.0212599
  0
SEQEND
 8
0
  0
POLYLINE
  8
0
 62
     0
 66
     1
 10
0
 20
0
 30
0.0
 40
1.53071
 41
1.53071
  0
VERTEX
  8
0
 10
25.3735
 20
13.4792
 30
0.0
 40
0.0212599
 41
0.0212599
  0
VERTEX
  8
0
 10
26.1
 20
15.1493
 30
0.0
 40
0.0212599
 41
0.0212599
  0
SEQEND
 8
0
  0
POLYLINE
  8
0
 62
     0
 66
     1
 10
0
 20
0
 30
0.0
 40
1.53071
 41
1.53071
  0
VERTEX
  8
0
 10
12.9881
 20
26.3865
 30
0.0
 40
0.0212599
 41
0.0212599
  0
VERTEX
  8
0
 10
15.0918
 20
23.5826
 30
0.0
 40
0.0212599
 41
0.0212599
  0
SEQEND
 8
0
  0
POLYLINE
  8
0
 62
     0
 66
     1
 10
0
 20
0
 30
0.0
 40
1.53071
 41
1.53071
  0
VERTEX
  8
0
 10
7.37776
 20
21.9879
 30
0.0
 40
0.0212599
 41
0.0212599
  0
VERTEX
  8
0
 10
8.1791
 20
20.979
 30
0.0
 40
0.0212599
 41
0.0212599
  0
SEQEND
 8
0
  0
POLYLINE
  8
0
 62
     0
 66
     1
 10
0
 20
0
 30
0.0
 40
1.53071
 41
1.53071
  0
VERTEX
  8
0
 10
21.5404
 20
17.85
 30
0.0
 40
0.0212599
 41
0.0212599
  0
VERTEX
  8
0
 10
19.3822
 20
20.1951
 30
0.0
 40
0.0212599
 41
0.0212599
  0
SEQEND
 8
0
  0
POLYLINE
  8
0
 62
     0
 66
     1
 10
0
 20
0
 30
0.0
 40
1.53071
 41
1.53071
  0
VERTEX
  8
0
 10
24.31
 20
15.3651
 30
0.0
 40
0.0212599
 41
0.0212599
  0
VERTEX
  8
0
 10
25.3735
 20
13.4792
 30
0.0
 40
0.0212599
 41
0.0212599
  0
SEQEND
 8
0
  0
POLYLINE
  8
0
 62
     0
 66
     1
 10
0
 20
0
 30
0.0
 40
1.53071
 41
1.53071
  0
VERTEX
  8
0
 10
15.3929
 20
26.6082
 30
0.0
 40
0.0212599
 41
0.0212599
  0
VERTEX
  8
0
 10
14.6115
 20
29.2854
 30
0.0
 40
0.0212599
 41
0.0212599
  0
SEQEND
 8
0
  0
POLYLINE
  8
0
 62
     0
 66
     1
 10
0
 20
0
 30
0.0
 40
1.53071
 41
1.53071
  0
VERTEX
  8
0
 10
7.37776
 20
21.9879
 30
0.0
 40
0.0212599
 41
0.0212599
  0
VERTEX
  8
0
 10
9.11719
 20
21.8276
 30
0.0
 40
0.0212599
 41
0.0212599
  0
SEQEND
 8
0
  0
POLYLINE
  8
0
 62
     0
 66
     1
 10
0
 20
0
 30
0.0
 40
1.53071
 41
1.53071
  0
VERTEX
  8
0
 10
21.5404
 20
17.85
 30
0.0
 40
0.0212599
 41
0.0212599
  0
VERTEX
  8
0
 10
19.0633
 20
18.4376
 30
0.0
 40
0.0212599
 41
0.0212599
  0
SEQEND
 8
0
  0
POLYLINE
  8
0
 62
     0
 66
     1
 10
0
 20
0
 30
0.0
 40
1.53071
 41
1.53071
  0
VERTEX
  8
0
 10
22.1853
 20
15.3917
 30
0.0
 40
0.0212599
 41
0.0212599
  0
VERTEX
  8
0
 10
21.5404
 20
17.85
 30
0.0
 40
0.0212599
 41
0.0212599
  0
SEQEND
 8
0
  0
POLYLINE
  8
0
 62
     0
 66
     1
 10
0
 20
0
 30
0.0
 40
1.53071
 41
1.53071
  0
VERTEX
  8
0
 10
15.0918
 20
23.5826
 30
0.0
 40
0.0212599
 41
0.0212599
  0
VERTEX
  8
0
 10
11.2993
 20
25.8865
 30
0.0
 40
0.0212599
 41
0.0212599
  0
SEQEND
 8
0
  0
POLYLINE
  8
0
 62
     0
 66
     1
 10
0
 20
0
 30
0.0
 40
1.53071
 41
1.53071
  0
VERTEX
  8
0
 10
21.5404
 20
17.85
 30
0.0
 40
0.0212599
 41
0.0212599
  0
VERTEX
  8
0
 10
18.9214
 20
16.0301
 30
0.0
 40
0.0212599
 41
0.0212599
  0
SEQEND
 8
0
  0
POLYLINE
  8
0
 62
     0
 66
     1
 10
0
 20
0
 30
0.0
 40
1.53071
 41
1.53071
  0
VERTEX
  8
0
 10
21.2711
 20
26.9778
 30
0.0
 40
0.0212599
 41
0.0212599
  0
VERTEX
  8
0
 10
19.3449
 20
28.8987
 30
0.0
 40
0.0212599
 41
0.0212599
  0
SEQEND
 8
0
  0
POLYLINE
  8
0
 62
     0
 66
     1
 10
0
 20
0
 30
0.0
 40
1.53071
 41
1.53071
  0
VERTEX
  8
0
 10
17.5467
 20
28.905
 30
0.0
 40
0.0212599
 41
0.0212599
  0
VERTEX
  8
0
 10
20.1608
 20
25.6988
 30
0.0
 40
0.0212599
 41
0.0212599
  0
SEQEND
 8
0
  0
POLYLINE
  8
0
 62
     0
 66
     1
 10
0
 20
0
 30
0.0
 40
1.53071
 41
1.53071
  0
VERTEX
  8
0
 10
24.119
 20
16.2724
 30
0.0
 40
0.0212599
 41
0.0212599
  0
VERTEX
  8
0
 10
23.5768
 20
18.0658
 30
0.0
 40
0.0212599
 41
0.0212599
  0
SEQEND
 8
0
  0
POLYLINE
  8
0
 62
     0
 66
     1
 10
0
 20
0
 30
0.0
 40
1.53071
 41
1.53071
  0
VERTEX
  8
0
 10
18.4331
 20
24.0303
 30
0.0
 40
0.0212599
 41
0.0212599
  0
VERTEX
  8
0
 10
19.3753
 20
22.1404
 30
0.0
 40
0.0212599
 41
0.0212599
  0
SEQEND
 8
0
  0
POLYLINE
  8
0
 62
     0
 66
     1
 10
0
 20
0
 30
0.0
 40
1.53071
 41
1.53071
  0
VERTEX
  8
0
 10
19.4649
 20
14.6019
 30
0.0
 40
0.0212599
 41
0.0212599
  0
VERTEX
  8
0
 10
18.4501
 20
11.9565
 30
0.0
 40
0.0212599
 41
0.0212599
  0
SEQEND
 8
0
  0
POLYLINE
  8
0
 62
     0
 66
     1
 10
0
 20
0
 30
0.0
 40
1.53071
 41
1.53071
  0
VERTEX
  8
0
 10
18.4331
 20
24.0303
 30
0.0
 40
0.0212599
 41
0.0212599
  0
VERTEX
  8
0
 10
20.1608
 20
25.6988
 30
0.0
 40
0.0212599
 41
0.0212599
  0
SEQEND
 8
0
  0
POLYLINE
  8
0
 62
     0
 66
     1
 10
0
 20
0
 30
0.0
 40
1.53071
 41
1.53071
  0
VERTEX
  8
0
 10
8.93474
 20
25.165
 30
0.0
 40
0.0212599
 41
0.0212599
  0
VERTEX
  8
0
 10
12.3293
 20
23.4958
 30
0.0
 40
0.0212599
 41
0.0212599
  0
SEQEND
 8
0
  0
POLYLINE
  8
0
 62
     0
 66
     1
 10
0
 20
0
 30
0.0
 40
1.53071
 41
1.53071
  0
VERTEX
  8
0
 10
20.7464
 20
23.3524
 30
0.0
 40
0.0212599
 41
0.0212599
  0
VERTEX
  8
0
 10
22.5407
 20
21.4547
 30
0.0
 40
0.0212599
 41
0.0212599
  0
SEQEND
 8
0
  0
POLYLINE
  8
0
 62
     0
 66
     1
 10
0
 20
0
 30
0.0
 40
1.53071
 41
1.53071
  0
VERTEX
  8
0
 10
12.3293
 20
23.4958
 30
0.0
 40
0.0212599
 41
0.0212599
  0
VERTEX
  8
0
 10
11.2993
 20
25.8865
 30
0.0
 40
0.0212599
 41
0.0212599
  0
SEQEND
 8
0
  0
POLYLINE
  8
0
 62
     0
 66
     1
 10
0
 20
0
 30
0.0
 40
1.53071
 41
1.53071
  0
VERTEX
  8
0
 10
18.4331
 20
24.0303
 30
0.0
 40
0.0212599
 41
0.0212599
  0
VERTEX
  8
0
 10
20.7464
 20
23.3524
 30
0.0
 40
0.0212599
 41
0.0212599
  0
SEQEND
 8
0
  0
POLYLINE
  8
0
 62
     0
 66
     1
 10
0
 20
0
 30
0.0
 40
1.53071
 41
1.53071
  0
VERTEX
  8
0
 10
26.0835
 20
11.5567
 30
0.0
 40
0.0212599
 41
0.0212599
  0
VERTEX
  8
0
 10
25.3735
 20
13.4792
 30
0.0
 40
0.0212599
 41
0.0212599
  0
SEQEND
 8
0
  0
POLYLINE
  8
0
 62
     0
 66
     1
 10
0
 20
0
 30
0.0
 40
1.53071
 41
1.53071
  0
VERTEX
  8
0
 10
17.3939
 20
18.2718
 30
0.0
 40
0.0212599
 41
0.0212599
  0
VERTEX
  8
0
 10
19.0633
 20
18.4376
 30
0.0
 40
0.0212599
 41
0.0212599
  0
SEQEND
 8
0
  0
POLYLINE
  8
0
 62
     0
 66
     1
 10
0
 20
0
 30
0.0
 40
1.53071
 41
1.53071
  0
VERTEX
  8
0
 10
19.4649
 20
14.6019
 30
0.0
 40
0.0212599
 41
0.0212599
  0
VERTEX
  8
0
 10
19.646
 20
11.8817
 30
0.0
 40
0.0212599
 41
0.0212599
  0
SEQEND
 8
0
  0
POLYLINE
  8
0
 62
     0
 66
     1
 10
0
 20
0
 30
0.0
 40
1.53071
 41
1.53071
  0
VERTEX
  8
0
 10
5.94265
 20
21.006
 30
0.0
 40
0.0212599
 41
0.0212599
  0
VERTEX
  8
0
 10
8.18653
 20
18.3575
 30
0.0
 40
0.0212599
 41
0.0212599
  0
SEQEND
 8
0
  0
POLYLINE
  8
0
 62
     0
 66
     1
 10
0
 20
0
 30
0.0
 40
1.53071
 41
1.53071
  0
VERTEX
  8
0
 10
24.31
 20
15.3651
 30
0.0
 40
0.0212599
 41
0.0212599
  0
VERTEX
  8
0
 10
24.1182
 20
13.2982
 30
0.0
 40
0.0212599
 41
0.0212599
  0
SEQEND
 8
0
  0
POLYLINE
  8
0
 62
     0
 66
     1
 10
0
 20
0
 30
0.0
 70
     1
 40
2.29606
 41
2.29606
  0
VERTEX
  8
0
 10
16.5978
 20
16.1632
 30
0.0
 40
0.0318897
 41
0.0318897
  0
VERTEX
  8
0
 10
16.4146
 20
14.0231
 30
0.0
 40
0.0318897
 41
0.0318897
  0
VERTEX
  8
0
 10
15.6469
 20
16.6781
 30
0.0
 40
0.0318897
 41
0.0318897
  0
VERTEX
  8
0
 10
14.0843
 20
19.2033
 30
0.0
 40
0.0318897
 41
0.0318897
  0
VERTEX
  8
0
 10
15.5893
 20
19.9172
 30
0.0
 40
0.0318897
 41
0.0318897
  0
VERTEX
  8
0
 10
16.7749
 20
21.3415
 30
0.0
 40
0.0318897
 41
0.0318897
  0
VERTEX
  8
0
 10
17.3939
 20
18.2718
 30
0.0
 40
0.0318897
 41
0.0318897
  0
VERTEX
  8
0
 10
18.0901
 20
21.3249
 30
0.0
 40
0.0318897
 41
0.0318897
  0
VERTEX
  8
0
 10
19.0633
 20
18.4376
 30
0.0
 40
0.0318897
 41
0.0318897
  0
VERTEX
  8
0
 10
19.3822
 20
20.1951
 30
0.0
 40
0.0318897
 41
0.0318897
  0
VERTEX
  8
0
 10
19.3753
 20
22.1404
 30
0.0
 40
0.0318897
 41
0.0318897
  0
VERTEX
  8
0
 10
18.2543
 20
22.4064
 30
0.0
 40
0.0318897
 41
0.0318897
  0
VERTEX
  8
0
 10
18.4331
 20
24.0303
 30
0.0
 40
0.0318897
 41
0.0318897
  0
VERTEX
  8
0
 10
17.8575
 20
22.5014
 30
0.0
 40
0.0318897
 41
0.0318897
  0
VERTEX
  8
0
 10
15.0918
 20
23.5826
 30
0.0
 40
0.0318897
 41
0.0318897
  0
VERTEX
  8
0
 10
12.3293
 20
23.4958
 30
0.0
 40
0.0318897
 41
0.0318897
  0
VERTEX
  8
0
 10
9.87061
 20
23.9735
 30
0.0
 40
0.0318897
 41
0.0318897
  0
VERTEX
  8
0
 10
9.44239
 20
22.8544
 30
0.0
 40
0.0318897
 41
0.0318897
  0
VERTEX
  8
0
 10
9.11719
 20
21.8276
 30
0.0
 40
0.0318897
 41
0.0318897
  0
VERTEX
  8
0
 10
8.1791
 20
20.979
 30
0.0
 40
0.0318897
 41
0.0318897
  0
VERTEX
  8
0
 10
10.6411
 20
18.305
 30
0.0
 40
0.0318897
 41
0.0318897
  0
VERTEX
  8
0
 10
8.18647
 20
18.3575
 30
0.0
 40
0.0318897
 41
0.0318897
  0
VERTEX
  8
0
 10
10.1958
 20
15.431
 30
0.0
 40
0.0318897
 41
0.0318897
  0
VERTEX
  8
0
 10
11.9888
 20
15.5685
 30
0.0
 40
0.0318897
 41
0.0318897
  0
VERTEX
  8
0
 10
12.8599
 20
17.0553
 30
0.0
 40
0.0318897
 41
0.0318897
  0
VERTEX
  8
0
 10
14.5736
 20
14.7217
 30
0.0
 40
0.0318897
 41
0.0318897
  0
VERTEX
  8
0
 10
13.6039
 20
13.5798
 30
0.0
 40
0.0318897
 41
0.0318897
  0
VERTEX
  8
0
 10
13.0976
 20
12.2448
 30
0.0
 40
0.0318897
 41
0.0318897
  0
VERTEX
  8
0
 10
11.5661
 20
11.4293
 30
0.0
 40
0.0318897
 41
0.0318897
  0
VERTEX
  8
0
 10
9.53657
 20
11.4301
 30
0.0
 40
0.0318897
 41
0.0318897
  0
VERTEX
  8
0
 10
9.32146
 20
14.4288
 30
0.0
 40
0.0318897
 41
0.0318897
  0
VERTEX
  8
0
 10
8.53315
 20
11.7351
 30
0.0
 40
0.0318897
 41
0.0318897
  0
VERTEX
  8
0
 10
7.18365
 20
16.2929
 30
0.0
 40
0.0318897
 41
0.0318897
  0
VERTEX
  8
0
 10
6.81114
 20
11.5541
 30
0.0
 40
0.0318897
 41
0.0318897
  0
VERTEX
  8
0
 10
6.30632
 20
12.4843
 30
0.0
 40
0.0318897
 41
0.0318897
  0
VERTEX
  8
0
 10
5.48329
 20
11.6108
 30
0.0
 40
0.0318897
 41
0.0318897
  0
VERTEX
  8
0
 10
4.82525
 20
11.4869
 30
0.0
 40
0.0318897
 41
0.0318897
  0
VERTEX
  8
0
 10
4.43371
 20
14.3556
 30
0.0
 40
0.0318897
 41
0.0318897
  0
VERTEX
  8
0
 10
5.21951
 20
17.1229
 30
0.0
 40
0.0318897
 41
0.0318897
  0
VERTEX
  8
0
 10
6.08903
 20
18.5261
 30
0.0
 40
0.0318897
 41
0.0318897
  0
VERTEX
  8
0
 10
4.08664
 20
20.5856
 30
0.0
 40
0.0318897
 41
0.0318897
  0
VERTEX
  8
0
 10
5.94265
 20
21.006
 30
0.0
 40
0.0318897
 41
0.0318897
  0
VERTEX
  8
0
 10
7.37776
 20
21.9879
 30
0.0
 40
0.0318897
 41
0.0318897
  0
VERTEX
  8
0
 10
8.02382
 20
23.3257
 30
0.0
 40
0.0318897
 41
0.0318897
  0
VERTEX
  8
0
 10
8.93474
 20
25.165
 30
0.0
 40
0.0318897
 41
0.0318897
  0
VERTEX
  8
0
 10
10.5194
 20
27.2519
 30
0.0
 40
0.0318897
 41
0.0318897
  0
VERTEX
  8
0
 10
11.2992
 20
25.8865
 30
0.0
 40
0.0318897
 41
0.0318897
  0
VERTEX
  8
0
 10
12.0295
 20
27.7397
 30
0.0
 40
0.0318897
 41
0.0318897
  0
VERTEX
  8
0
 10
13.4971
 20
30.1796
 30
0.0
 40
0.0318897
 41
0.0318897
  0
VERTEX
  8
0
 10
14.2731
 20
28.8683
 30
0.0
 40
0.0318897
 41
0.0318897
  0
VERTEX
  8
0
 10
12.9881
 20
26.3867
 30
0.0
 40
0.0318897
 41
0.0318897
  0
VERTEX
  8
0
 10
14.6115
 20
29.2856
 30
0.0
 40
0.0318897
 41
0.0318897
  0
VERTEX
  8
0
 10
15.8747
 20
28.67
 30
0.0
 40
0.0318897
 41
0.0318897
  0
VERTEX
  8
0
 10
15.3929
 20
26.6083
 30
0.0
 40
0.0318897
 41
0.0318897
  0
VERTEX
  8
0
 10
17.5465
 20
28.905
 30
0.0
 40
0.0318897
 41
0.0318897
  0
VERTEX
  8
0
 10
19.3449
 20
28.8987
 30
0.0
 40
0.0318897
 41
0.0318897
  0
VERTEX
  8
0
 10
22.2361
 20
30.9583
 30
0.0
 40
0.0318897
 41
0.0318897
  0
VERTEX
  8
0
 10
22.8038
 20
28.5696
 30
0.0
 40
0.0318897
 41
0.0318897
  0
VERTEX
  8
0
 10
21.2711
 20
26.9778
 30
0.0
 40
0.0318897
 41
0.0318897
  0
VERTEX
  8
0
 10
20.1608
 20
25.6988
 30
0.0
 40
0.0318897
 41
0.0318897
  0
VERTEX
  8
0
 10
20.7464
 20
23.3524
 30
0.0
 40
0.0318897
 41
0.0318897
  0
VERTEX
  8
0
 10
23.2757
 20
22.2904
 30
0.0
 40
0.0318897
 41
0.0318897
  0
VERTEX
  8
0
 10
22.5407
 20
21.4547
 30
0.0
 40
0.0318897
 41
0.0318897
  0
VERTEX
  8
0
 10
23.1344
 20
19.1742
 30
0.0
 40
0.0318897
 41
0.0318897
  0
VERTEX
  8
0
 10
21.7237
 20
19.2276
 30
0.0
 40
0.0318897
 41
0.0318897
  0
VERTEX
  8
0
 10
21.5404
 20
17.85
 30
0.0
 40
0.0318897
 41
0.0318897
  0
VERTEX
  8
0
 10
22.5092
 20
17.2351
 30
0.0
 40
0.0318897
 41
0.0318897
  0
VERTEX
  8
0
 10
23.5768
 20
18.0658
 30
0.0
 40
0.0318897
 41
0.0318897
  0
VERTEX
  8
0
 10
24.9239
 20
19.9994
 30
0.0
 40
0.0318897
 41
0.0318897
  0
VERTEX
  8
0
 10
25.9085
 20
19.4804
 30
0.0
 40
0.0318897
 41
0.0318897
  0
VERTEX
  8
0
 10
26.7421
 20
21.2938
 30
0.0
 40
0.0318897
 41
0.0318897
  0
VERTEX
  8
0
 10
25.2038
 20
20.0224
 30
0.0
 40
0.0318897
 41
0.0318897
  0
VERTEX
  8
0
 10
25.7497
 20
22.7106
 30
0.0
 40
0.0318897
 41
0.0318897
  0
VERTEX
  8
0
 10
27.5776
 20
25.3274
 30
0.0
 40
0.0318897
 41
0.0318897
  0
VERTEX
  8
0
 10
28.7438
 20
24.4167
 30
0.0
 40
0.0318897
 41
0.0318897
  0
VERTEX
  8
0
 10
29.7937
 20
23.5068
 30
0.0
 40
0.0318897
 41
0.0318897
  0
VERTEX
  8
0
 10
31.0346
 20
22.3172
 30
0.0
 40
0.0318897
 41
0.0318897
  0
VERTEX
  8
0
 10
32.2608
 20
20.5821
 30
0.0
 40
0.0318897
 41
0.0318897
  0
VERTEX
  8
0
 10
32.8579
 20
19.5726
 30
0.0
 40
0.0318897
 41
0.0318897
  0
VERTEX
  8
0
 10
33.3111
 20
17.6974
 30
0.0
 40
0.0318897
 41
0.0318897
  0
VERTEX
  8
0
 10
30.3371
 20
16.5381
 30
0.0
 40
0.0318897
 41
0.0318897
  0
VERTEX
  8
0
 10
30.4278
 20
18.9547
 30
0.0
 40
0.0318897
 41
0.0318897
  0
VERTEX
  8
0
 10
29.2128
 20
20.2267
 30
0.0
 40
0.0318897
 41
0.0318897
  0
VERTEX
  8
0
 10
27.9992
 20
21.0672
 30
0.0
 40
0.0318897
 41
0.0318897
  0
VERTEX
  8
0
 10
27.3365
 20
18.6707
 30
0.0
 40
0.0318897
 41
0.0318897
  0
VERTEX
  8
0
 10
25.5597
 20
17.3564
 30
0.0
 40
0.0318897
 41
0.0318897
  0
VERTEX
  8
0
 10
24.119
 20
16.2724
 30
0.0
 40
0.0318897
 41
0.0318897
  0
VERTEX
  8
0
 10
22.1853
 20
15.3917
 30
0.0
 40
0.0318897
 41
0.0318897
  0
VERTEX
  8
0
 10
24.31
 20
15.3651
 30
0.0
 40
0.0318897
 41
0.0318897
  0
VERTEX
  8
0
 10
26.1
 20
15.1493
 30
0.0
 40
0.0318897
 41
0.0318897
  0
VERTEX
  8
0
 10
28.0958
 20
14.2
 30
0.0
 40
0.0318897
 41
0.0318897
  0
VERTEX
  8
0
 10
30.5528
 20
13.8171
 30
0.0
 40
0.0318897
 41
0.0318897
  0
VERTEX
  8
0
 10
30.0799
 20
12.4187
 30
0.0
 40
0.0318897
 41
0.0318897
  0
VERTEX
  8
0
 10
30.6756
 20
10.7636
 30
0.0
 40
0.0318897
 41
0.0318897
  0
VERTEX
  8
0
 10
29.0244
 20
11.1409
 30
0.0
 40
0.0318897
 41
0.0318897
  0
VERTEX
  8
0
 10
26.8285
 20
10.8943
 30
0.0
 40
0.0318897
 41
0.0318897
  0
VERTEX
  8
0
 10
27.5065
 20
12.407
 30
0.0
 40
0.0318897
 41
0.0318897
  0
VERTEX
  8
0
 10
26.0835
 20
11.5567
 30
0.0
 40
0.0318897
 41
0.0318897
  0
VERTEX
  8
0
 10
22.5362
 20
10.7636
 30
0.0
 40
0.0318897
 41
0.0318897
  0
VERTEX
  8
0
 10
24.1679
 20
13.0856
 30
0.0
 40
0.0318897
 41
0.0318897
  0
VERTEX
  8
0
 10
25.3735
 20
13.4792
 30
0.0
 40
0.0318897
 41
0.0318897
  0
VERTEX
  8
0
 10
24.1182
 20
13.2982
 30
0.0
 40
0.0318897
 41
0.0318897
  0
VERTEX
  8
0
 10
22.441
 20
11.0089
 30
0.0
 40
0.0318897
 41
0.0318897
  0
VERTEX
  8
0
 10
21.6764
 20
12.0165
 30
0.0
 40
0.0318897
 41
0.0318897
  0
VERTEX
  8
0
 10
19.9093
 20
14.8643
 30
0.0
 40
0.0318897
 41
0.0318897
  0
VERTEX
  8
0
 10
18.9214
 20
16.0301
 30
0.0
 40
0.0318897
 41
0.0318897
  0
VERTEX
  8
0
 10
19.4649
 20
14.6019
 30
0.0
 40
0.0318897
 41
0.0318897
  0
VERTEX
  8
0
 10
20.6382
 20
11.4625
 30
0.0
 40
0.0318897
 41
0.0318897
  0
VERTEX
  8
0
 10
19.646
 20
11.8817
 30
0.0
 40
0.0318897
 41
0.0318897
  0
VERTEX
  8
0
 10
18.4501
 20
11.9565
 30
0.0
 40
0.0318897
 41
0.0318897
  0
VERTEX
  8
0
 10
17.7803
 20
14.3699
 30
0.0
 40
0.0318897
 41
0.0318897
  0
VERTEX
  8
0
 10
16.5978
 20
16.1632
 30
0.0
 40
0.0318897
 41
0.0318897
  0
SEQEND
 8
0
  0
ENDSEC
  0
EOF
